# xmcd
#
# Track frame offsets: 
#        150
#        13055
#        26727
#        38332
#        55716
#        68794
#        80794
#        91374
#        104420
#        117585
#        126722
#        138316
#        148030
#        162430
#        172134
#        188392
#        206759
#        219650
#
# Disc length: 3129 seconds
#
# Revision: 0
# Processed by: cddbd v1.5.2PL0 Copyright (c) Steve Scherf et al.
# Submitted via: ExactAudioCopy v0.95b4
#
DISCID=0e0c3712
DTITLE=Various Artist - Country Legends - Reflections 2CD (Disc2)
DYEAR=2007
DGENRE=Country
TTITLE0=Johnny Cash - Folsom Prison Blues
TTITLE1=Mickey Gilley - True Love Ways
TTITLE2=Sandy Posey - Single Girl
TTITLE3=Bobby Goldsboro - Honey
TTITLE4=Alabama - Loving You Is Killing Me
TTITLE5=Melba Montgomery - I Can't Help It (If I'm Still In Love With 
TTITLE5=You)
TTITLE6=The Everly Brothers - Bye Bye Love
TTITLE7=Bill Anderson - Still
TTITLE8=Hank Williams - Jambalaya (On The Bayou)
TTITLE9=Jerry Lee Lewis - Invitation To Your Party
TTITLE10=Hank Locklin - Send Me The Pillow You Dream On
TTITLE11=Bob Luman - Let's Think About Living
TTITLE12=Conway Twitty - You've Never Been This Far Before
TTITLE13=Lynn Anderson - Snowbird
TTITLE14=Randy Vanwarmer - Just When I Needed You Most
TTITLE15=Michael Johnson and Alison Krausse - Whenever You Call Me Frien
TTITLE15=d
TTITLE16=Janie Frickie - He's A Heartache (Lookin' For A Place To Happ
TTITLE16=en)
TTITLE17=Jhonny Rodriguez - Desperado
EXTD=
EXTT0=
EXTT1=
EXTT2=
EXTT3=
EXTT4=
EXTT5=
EXTT6=
EXTT7=
EXTT8=
EXTT9=
EXTT10=
EXTT11=
EXTT12=
EXTT13=
EXTT14=
EXTT15=
EXTT16=
EXTT17=
PLAYORDER=
